<mxfile host="app.diagrams.net" modified="2023-09-24T16:39:59.430Z" agent="Mozilla/5.0 (Windows NT 10.0; Win64; x64) AppleWebKit/537.36 (KHTML, like Gecko) Chrome/114.0.0.0 YaBrowser/23.7.5.734 Yowser/2.5 Safari/537.36" etag="JSkhSO_obao00U28aENt" version="21.8.1" type="device">
  <diagram name="Страница — 1" id="6iuGtKcAUv6OEx3ff-Oz">
    <mxGraphModel dx="2080" dy="1888" grid="1" gridSize="10" guides="1" tooltips="1" connect="1" arrows="1" fold="1" page="1" pageScale="1" pageWidth="827" pageHeight="1169" math="0" shadow="0">
      <root>
        <mxCell id="0" />
        <mxCell id="1" parent="0" />
        <mxCell id="pSPw-QTGQI8KGN8gAAyq-17" style="edgeStyle=orthogonalEdgeStyle;rounded=0;orthogonalLoop=1;jettySize=auto;html=1;entryX=0.5;entryY=0;entryDx=0;entryDy=0;endArrow=none;endFill=0;" parent="1" source="pSPw-QTGQI8KGN8gAAyq-1" target="pSPw-QTGQI8KGN8gAAyq-5" edge="1">
          <mxGeometry relative="1" as="geometry">
            <Array as="points">
              <mxPoint x="405" y="-28" />
              <mxPoint x="184" y="-28" />
            </Array>
          </mxGeometry>
        </mxCell>
        <mxCell id="pSPw-QTGQI8KGN8gAAyq-19" style="edgeStyle=orthogonalEdgeStyle;rounded=0;orthogonalLoop=1;jettySize=auto;html=1;endArrow=none;endFill=0;" parent="1" source="pSPw-QTGQI8KGN8gAAyq-1" target="pSPw-QTGQI8KGN8gAAyq-6" edge="1">
          <mxGeometry relative="1" as="geometry">
            <Array as="points">
              <mxPoint x="405" y="-28" />
              <mxPoint x="604" y="-28" />
            </Array>
          </mxGeometry>
        </mxCell>
        <mxCell id="pSPw-QTGQI8KGN8gAAyq-1" value="HTML" style="rounded=1;whiteSpace=wrap;html=1;" parent="1" vertex="1">
          <mxGeometry x="345" y="-108" width="120" height="60" as="geometry" />
        </mxCell>
        <mxCell id="L6Qv9vJODIxAby1nLslO-9" value="" style="edgeStyle=orthogonalEdgeStyle;shape=connector;rounded=0;orthogonalLoop=1;jettySize=auto;html=1;labelBackgroundColor=default;strokeColor=default;align=center;verticalAlign=middle;fontFamily=Helvetica;fontSize=11;fontColor=default;endArrow=none;endFill=0;" edge="1" parent="1" source="pSPw-QTGQI8KGN8gAAyq-3" target="pSPw-QTGQI8KGN8gAAyq-5">
          <mxGeometry relative="1" as="geometry">
            <Array as="points">
              <mxPoint x="219" y="52" />
              <mxPoint x="184" y="52" />
            </Array>
          </mxGeometry>
        </mxCell>
        <mxCell id="pSPw-QTGQI8KGN8gAAyq-3" value="style" style="rounded=1;whiteSpace=wrap;html=1;" parent="1" vertex="1">
          <mxGeometry x="192" y="69" width="54" height="30" as="geometry" />
        </mxCell>
        <mxCell id="pSPw-QTGQI8KGN8gAAyq-20" style="edgeStyle=orthogonalEdgeStyle;rounded=0;orthogonalLoop=1;jettySize=auto;html=1;entryX=0.5;entryY=0;entryDx=0;entryDy=0;strokeColor=default;endArrow=none;endFill=0;" parent="1" source="pSPw-QTGQI8KGN8gAAyq-5" target="pSPw-QTGQI8KGN8gAAyq-7" edge="1">
          <mxGeometry relative="1" as="geometry">
            <Array as="points">
              <mxPoint x="184" y="52" />
              <mxPoint x="20" y="52" />
              <mxPoint x="20" y="69" />
            </Array>
          </mxGeometry>
        </mxCell>
        <mxCell id="pSPw-QTGQI8KGN8gAAyq-22" style="edgeStyle=orthogonalEdgeStyle;rounded=0;orthogonalLoop=1;jettySize=auto;html=1;entryX=0.5;entryY=0;entryDx=0;entryDy=0;endArrow=none;endFill=0;" parent="1" source="pSPw-QTGQI8KGN8gAAyq-5" target="pSPw-QTGQI8KGN8gAAyq-9" edge="1">
          <mxGeometry relative="1" as="geometry">
            <Array as="points">
              <mxPoint x="184" y="52" />
              <mxPoint x="158" y="52" />
            </Array>
          </mxGeometry>
        </mxCell>
        <mxCell id="pSPw-QTGQI8KGN8gAAyq-24" style="edgeStyle=orthogonalEdgeStyle;rounded=0;orthogonalLoop=1;jettySize=auto;html=1;endArrow=none;endFill=0;" parent="1" source="pSPw-QTGQI8KGN8gAAyq-5" target="pSPw-QTGQI8KGN8gAAyq-10" edge="1">
          <mxGeometry relative="1" as="geometry">
            <Array as="points">
              <mxPoint x="184" y="52" />
              <mxPoint x="277" y="52" />
            </Array>
          </mxGeometry>
        </mxCell>
        <mxCell id="pSPw-QTGQI8KGN8gAAyq-5" value="head" style="rounded=1;whiteSpace=wrap;html=1;" parent="1" vertex="1">
          <mxGeometry x="141" y="2" width="86" height="30" as="geometry" />
        </mxCell>
        <mxCell id="pSPw-QTGQI8KGN8gAAyq-27" style="edgeStyle=orthogonalEdgeStyle;rounded=0;orthogonalLoop=1;jettySize=auto;html=1;entryX=0.5;entryY=0;entryDx=0;entryDy=0;endArrow=none;endFill=0;exitX=0.5;exitY=1;exitDx=0;exitDy=0;" parent="1" source="pSPw-QTGQI8KGN8gAAyq-6" target="pSPw-QTGQI8KGN8gAAyq-12" edge="1">
          <mxGeometry relative="1" as="geometry">
            <Array as="points">
              <mxPoint x="634" y="52" />
              <mxPoint x="484" y="52" />
            </Array>
          </mxGeometry>
        </mxCell>
        <mxCell id="pSPw-QTGQI8KGN8gAAyq-28" style="edgeStyle=orthogonalEdgeStyle;rounded=0;orthogonalLoop=1;jettySize=auto;html=1;entryX=0.5;entryY=0;entryDx=0;entryDy=0;endArrow=none;endFill=0;" parent="1" source="pSPw-QTGQI8KGN8gAAyq-6" target="pSPw-QTGQI8KGN8gAAyq-13" edge="1">
          <mxGeometry relative="1" as="geometry" />
        </mxCell>
        <mxCell id="pSPw-QTGQI8KGN8gAAyq-29" style="edgeStyle=orthogonalEdgeStyle;rounded=0;orthogonalLoop=1;jettySize=auto;html=1;entryX=0.5;entryY=0;entryDx=0;entryDy=0;endArrow=none;endFill=0;exitX=0.5;exitY=1;exitDx=0;exitDy=0;" parent="1" source="pSPw-QTGQI8KGN8gAAyq-6" target="pSPw-QTGQI8KGN8gAAyq-15" edge="1">
          <mxGeometry relative="1" as="geometry">
            <Array as="points">
              <mxPoint x="634" y="52" />
              <mxPoint x="784" y="52" />
            </Array>
          </mxGeometry>
        </mxCell>
        <mxCell id="pSPw-QTGQI8KGN8gAAyq-30" style="edgeStyle=orthogonalEdgeStyle;rounded=0;orthogonalLoop=1;jettySize=auto;html=1;entryX=0.5;entryY=0;entryDx=0;entryDy=0;endArrow=none;endFill=0;" parent="1" source="pSPw-QTGQI8KGN8gAAyq-6" target="pSPw-QTGQI8KGN8gAAyq-14" edge="1">
          <mxGeometry relative="1" as="geometry" />
        </mxCell>
        <mxCell id="pSPw-QTGQI8KGN8gAAyq-6" value="body" style="rounded=1;whiteSpace=wrap;html=1;" parent="1" vertex="1">
          <mxGeometry x="591" y="2" width="86" height="30" as="geometry" />
        </mxCell>
        <mxCell id="pSPw-QTGQI8KGN8gAAyq-7" value="meta" style="rounded=1;whiteSpace=wrap;html=1;" parent="1" vertex="1">
          <mxGeometry x="-3" y="69" width="51" height="30" as="geometry" />
        </mxCell>
        <mxCell id="pSPw-QTGQI8KGN8gAAyq-8" value="link" style="rounded=1;whiteSpace=wrap;html=1;" parent="1" vertex="1">
          <mxGeometry x="65" y="69" width="49" height="30" as="geometry" />
        </mxCell>
        <mxCell id="pSPw-QTGQI8KGN8gAAyq-9" value="script" style="rounded=1;whiteSpace=wrap;html=1;" parent="1" vertex="1">
          <mxGeometry x="134" y="69" width="48" height="30" as="geometry" />
        </mxCell>
        <mxCell id="pSPw-QTGQI8KGN8gAAyq-10" value="title" style="rounded=1;whiteSpace=wrap;html=1;" parent="1" vertex="1">
          <mxGeometry x="253" y="69" width="47" height="30" as="geometry" />
        </mxCell>
        <mxCell id="pSPw-QTGQI8KGN8gAAyq-12" value="h1" style="rounded=1;whiteSpace=wrap;html=1;" parent="1" vertex="1">
          <mxGeometry x="441" y="72" width="86" height="30" as="geometry" />
        </mxCell>
        <mxCell id="pSPw-QTGQI8KGN8gAAyq-13" value="style" style="rounded=1;whiteSpace=wrap;html=1;" parent="1" vertex="1">
          <mxGeometry x="541" y="72" width="86" height="30" as="geometry" />
        </mxCell>
        <mxCell id="pSPw-QTGQI8KGN8gAAyq-14" value="p" style="rounded=1;whiteSpace=wrap;html=1;" parent="1" vertex="1">
          <mxGeometry x="641" y="72" width="86" height="30" as="geometry" />
        </mxCell>
        <mxCell id="pSPw-QTGQI8KGN8gAAyq-111" value="" style="edgeStyle=orthogonalEdgeStyle;rounded=0;orthogonalLoop=1;jettySize=auto;html=1;endArrow=none;endFill=0;" parent="1" source="pSPw-QTGQI8KGN8gAAyq-15" target="pSPw-QTGQI8KGN8gAAyq-31" edge="1">
          <mxGeometry relative="1" as="geometry" />
        </mxCell>
        <mxCell id="pSPw-QTGQI8KGN8gAAyq-15" value="x3d" style="rounded=1;whiteSpace=wrap;html=1;" parent="1" vertex="1">
          <mxGeometry x="741" y="72" width="86" height="30" as="geometry" />
        </mxCell>
        <mxCell id="pSPw-QTGQI8KGN8gAAyq-32" style="edgeStyle=orthogonalEdgeStyle;rounded=0;orthogonalLoop=1;jettySize=auto;html=1;endArrow=none;endFill=0;" parent="1" edge="1">
          <mxGeometry relative="1" as="geometry">
            <mxPoint x="784" y="613" as="targetPoint" />
            <mxPoint x="784" y="150.97" as="sourcePoint" />
            <Array as="points">
              <mxPoint x="784" y="599" />
            </Array>
          </mxGeometry>
        </mxCell>
        <mxCell id="pSPw-QTGQI8KGN8gAAyq-35" style="edgeStyle=orthogonalEdgeStyle;rounded=0;orthogonalLoop=1;jettySize=auto;html=1;entryX=1;entryY=0.5;entryDx=0;entryDy=0;endArrow=none;endFill=0;" parent="1" target="pSPw-QTGQI8KGN8gAAyq-34" edge="1">
          <mxGeometry relative="1" as="geometry">
            <mxPoint x="126.00000000000011" y="320" as="targetPoint" />
            <mxPoint x="784" y="259" as="sourcePoint" />
            <Array as="points">
              <mxPoint x="106" y="260" />
            </Array>
          </mxGeometry>
        </mxCell>
        <mxCell id="L6Qv9vJODIxAby1nLslO-39" style="edgeStyle=orthogonalEdgeStyle;shape=connector;rounded=0;orthogonalLoop=1;jettySize=auto;html=1;labelBackgroundColor=default;strokeColor=default;align=center;verticalAlign=middle;fontFamily=Helvetica;fontSize=11;fontColor=default;endArrow=none;endFill=0;entryX=0.5;entryY=0;entryDx=0;entryDy=0;" edge="1" parent="1" source="pSPw-QTGQI8KGN8gAAyq-31" target="L6Qv9vJODIxAby1nLslO-36">
          <mxGeometry relative="1" as="geometry">
            <Array as="points">
              <mxPoint x="784" y="870" />
              <mxPoint x="87" y="870" />
            </Array>
          </mxGeometry>
        </mxCell>
        <mxCell id="pSPw-QTGQI8KGN8gAAyq-31" value="Scene" style="rounded=1;whiteSpace=wrap;html=1;" parent="1" vertex="1">
          <mxGeometry x="741" y="122" width="86" height="30" as="geometry" />
        </mxCell>
        <mxCell id="pSPw-QTGQI8KGN8gAAyq-34" value="Background" style="rounded=1;whiteSpace=wrap;html=1;" parent="1" vertex="1">
          <mxGeometry x="20" y="240" width="86" height="40" as="geometry" />
        </mxCell>
        <mxCell id="pSPw-QTGQI8KGN8gAAyq-42" value="transform" style="rounded=1;whiteSpace=wrap;html=1;" parent="1" vertex="1">
          <mxGeometry x="106" y="300" width="86" height="30" as="geometry" />
        </mxCell>
        <mxCell id="pSPw-QTGQI8KGN8gAAyq-91" style="edgeStyle=orthogonalEdgeStyle;rounded=0;orthogonalLoop=1;jettySize=auto;html=1;endArrow=none;endFill=0;" parent="1" source="pSPw-QTGQI8KGN8gAAyq-45" target="pSPw-QTGQI8KGN8gAAyq-72" edge="1">
          <mxGeometry relative="1" as="geometry" />
        </mxCell>
        <mxCell id="pSPw-QTGQI8KGN8gAAyq-45" value="transform" style="rounded=1;whiteSpace=wrap;html=1;" parent="1" vertex="1">
          <mxGeometry x="259" y="300" width="86" height="30" as="geometry" />
        </mxCell>
        <mxCell id="pSPw-QTGQI8KGN8gAAyq-55" style="edgeStyle=orthogonalEdgeStyle;rounded=0;orthogonalLoop=1;jettySize=auto;html=1;endArrow=none;endFill=0;" parent="1" source="pSPw-QTGQI8KGN8gAAyq-51" target="pSPw-QTGQI8KGN8gAAyq-42" edge="1">
          <mxGeometry relative="1" as="geometry" />
        </mxCell>
        <mxCell id="pSPw-QTGQI8KGN8gAAyq-65" style="edgeStyle=orthogonalEdgeStyle;rounded=0;orthogonalLoop=1;jettySize=auto;html=1;exitX=0.5;exitY=1;exitDx=0;exitDy=0;entryX=0.5;entryY=0;entryDx=0;entryDy=0;endArrow=none;endFill=0;" parent="1" source="pSPw-QTGQI8KGN8gAAyq-51" target="pSPw-QTGQI8KGN8gAAyq-60" edge="1">
          <mxGeometry relative="1" as="geometry">
            <Array as="points">
              <mxPoint x="147" y="400" />
              <mxPoint x="147" y="420" />
            </Array>
          </mxGeometry>
        </mxCell>
        <mxCell id="pSPw-QTGQI8KGN8gAAyq-69" style="edgeStyle=orthogonalEdgeStyle;rounded=0;orthogonalLoop=1;jettySize=auto;html=1;entryX=0.5;entryY=0;entryDx=0;entryDy=0;endArrow=none;endFill=0;" parent="1" source="pSPw-QTGQI8KGN8gAAyq-51" target="pSPw-QTGQI8KGN8gAAyq-66" edge="1">
          <mxGeometry relative="1" as="geometry">
            <Array as="points">
              <mxPoint x="205" y="390" />
            </Array>
          </mxGeometry>
        </mxCell>
        <mxCell id="pSPw-QTGQI8KGN8gAAyq-51" value="shape" style="rounded=1;whiteSpace=wrap;html=1;" parent="1" vertex="1">
          <mxGeometry x="117" y="370" width="64" height="30" as="geometry" />
        </mxCell>
        <mxCell id="pSPw-QTGQI8KGN8gAAyq-62" value="" style="edgeStyle=orthogonalEdgeStyle;rounded=0;orthogonalLoop=1;jettySize=auto;html=1;endArrow=none;endFill=0;" parent="1" source="pSPw-QTGQI8KGN8gAAyq-60" target="pSPw-QTGQI8KGN8gAAyq-61" edge="1">
          <mxGeometry relative="1" as="geometry" />
        </mxCell>
        <mxCell id="pSPw-QTGQI8KGN8gAAyq-60" value="appearance" style="rounded=1;whiteSpace=wrap;html=1;" parent="1" vertex="1">
          <mxGeometry x="98" y="430" width="64" height="30" as="geometry" />
        </mxCell>
        <mxCell id="pSPw-QTGQI8KGN8gAAyq-61" value="image&lt;br&gt;texture" style="rounded=1;whiteSpace=wrap;html=1;" parent="1" vertex="1">
          <mxGeometry x="98" y="480" width="64" height="30" as="geometry" />
        </mxCell>
        <mxCell id="pSPw-QTGQI8KGN8gAAyq-66" value="box" style="rounded=1;whiteSpace=wrap;html=1;" parent="1" vertex="1">
          <mxGeometry x="173" y="430" width="64" height="30" as="geometry" />
        </mxCell>
        <mxCell id="pSPw-QTGQI8KGN8gAAyq-70" style="edgeStyle=orthogonalEdgeStyle;rounded=0;orthogonalLoop=1;jettySize=auto;html=1;exitX=0.5;exitY=1;exitDx=0;exitDy=0;entryX=0.5;entryY=0;entryDx=0;entryDy=0;endArrow=none;endFill=0;" parent="1" source="pSPw-QTGQI8KGN8gAAyq-72" target="pSPw-QTGQI8KGN8gAAyq-74" edge="1">
          <mxGeometry relative="1" as="geometry">
            <Array as="points">
              <mxPoint x="300" y="400" />
              <mxPoint x="300" y="420" />
            </Array>
          </mxGeometry>
        </mxCell>
        <mxCell id="pSPw-QTGQI8KGN8gAAyq-71" style="edgeStyle=orthogonalEdgeStyle;rounded=0;orthogonalLoop=1;jettySize=auto;html=1;entryX=0.5;entryY=0;entryDx=0;entryDy=0;endArrow=none;endFill=0;" parent="1" source="pSPw-QTGQI8KGN8gAAyq-72" target="pSPw-QTGQI8KGN8gAAyq-76" edge="1">
          <mxGeometry relative="1" as="geometry">
            <Array as="points">
              <mxPoint x="358" y="390" />
            </Array>
          </mxGeometry>
        </mxCell>
        <mxCell id="pSPw-QTGQI8KGN8gAAyq-72" value="shape" style="rounded=1;whiteSpace=wrap;html=1;" parent="1" vertex="1">
          <mxGeometry x="270" y="370" width="64" height="30" as="geometry" />
        </mxCell>
        <mxCell id="pSPw-QTGQI8KGN8gAAyq-73" value="" style="edgeStyle=orthogonalEdgeStyle;rounded=0;orthogonalLoop=1;jettySize=auto;html=1;endArrow=none;endFill=0;" parent="1" source="pSPw-QTGQI8KGN8gAAyq-74" target="pSPw-QTGQI8KGN8gAAyq-75" edge="1">
          <mxGeometry relative="1" as="geometry" />
        </mxCell>
        <mxCell id="pSPw-QTGQI8KGN8gAAyq-74" value="appearance" style="rounded=1;whiteSpace=wrap;html=1;" parent="1" vertex="1">
          <mxGeometry x="251" y="430" width="64" height="30" as="geometry" />
        </mxCell>
        <mxCell id="pSPw-QTGQI8KGN8gAAyq-75" value="material" style="rounded=1;whiteSpace=wrap;html=1;" parent="1" vertex="1">
          <mxGeometry x="251" y="480" width="64" height="30" as="geometry" />
        </mxCell>
        <mxCell id="pSPw-QTGQI8KGN8gAAyq-76" value="cylinder" style="rounded=1;whiteSpace=wrap;html=1;" parent="1" vertex="1">
          <mxGeometry x="326" y="430" width="64" height="30" as="geometry" />
        </mxCell>
        <mxCell id="pSPw-QTGQI8KGN8gAAyq-84" style="edgeStyle=orthogonalEdgeStyle;rounded=0;orthogonalLoop=1;jettySize=auto;html=1;exitX=0.5;exitY=1;exitDx=0;exitDy=0;entryX=0.5;entryY=0;entryDx=0;entryDy=0;endArrow=none;endFill=0;" parent="1" source="pSPw-QTGQI8KGN8gAAyq-86" target="pSPw-QTGQI8KGN8gAAyq-88" edge="1">
          <mxGeometry relative="1" as="geometry">
            <Array as="points">
              <mxPoint x="647" y="400" />
              <mxPoint x="647" y="420" />
            </Array>
          </mxGeometry>
        </mxCell>
        <mxCell id="pSPw-QTGQI8KGN8gAAyq-85" style="edgeStyle=orthogonalEdgeStyle;rounded=0;orthogonalLoop=1;jettySize=auto;html=1;entryX=0.5;entryY=0;entryDx=0;entryDy=0;endArrow=none;endFill=0;" parent="1" source="pSPw-QTGQI8KGN8gAAyq-86" target="pSPw-QTGQI8KGN8gAAyq-90" edge="1">
          <mxGeometry relative="1" as="geometry">
            <Array as="points">
              <mxPoint x="705" y="390" />
            </Array>
          </mxGeometry>
        </mxCell>
        <mxCell id="pSPw-QTGQI8KGN8gAAyq-86" value="shape" style="rounded=1;whiteSpace=wrap;html=1;" parent="1" vertex="1">
          <mxGeometry x="617" y="370" width="64" height="30" as="geometry" />
        </mxCell>
        <mxCell id="pSPw-QTGQI8KGN8gAAyq-87" value="" style="edgeStyle=orthogonalEdgeStyle;rounded=0;orthogonalLoop=1;jettySize=auto;html=1;endArrow=none;endFill=0;" parent="1" source="pSPw-QTGQI8KGN8gAAyq-88" target="pSPw-QTGQI8KGN8gAAyq-89" edge="1">
          <mxGeometry relative="1" as="geometry" />
        </mxCell>
        <mxCell id="pSPw-QTGQI8KGN8gAAyq-88" value="appearance" style="rounded=1;whiteSpace=wrap;html=1;" parent="1" vertex="1">
          <mxGeometry x="598" y="430" width="64" height="30" as="geometry" />
        </mxCell>
        <mxCell id="pSPw-QTGQI8KGN8gAAyq-89" value="material" style="rounded=1;whiteSpace=wrap;html=1;" parent="1" vertex="1">
          <mxGeometry x="598" y="480" width="64" height="30" as="geometry" />
        </mxCell>
        <mxCell id="pSPw-QTGQI8KGN8gAAyq-90" value="ElevationGrid" style="rounded=1;whiteSpace=wrap;html=1;" parent="1" vertex="1">
          <mxGeometry x="673" y="430" width="78" height="30" as="geometry" />
        </mxCell>
        <mxCell id="pSPw-QTGQI8KGN8gAAyq-94" style="edgeStyle=orthogonalEdgeStyle;rounded=0;orthogonalLoop=1;jettySize=auto;html=1;endArrow=none;endFill=0;" parent="1" edge="1">
          <mxGeometry relative="1" as="geometry">
            <mxPoint x="303" y="260" as="targetPoint" />
            <mxPoint x="301" y="300" as="sourcePoint" />
            <Array as="points">
              <mxPoint x="301" y="260" />
            </Array>
          </mxGeometry>
        </mxCell>
        <mxCell id="pSPw-QTGQI8KGN8gAAyq-96" style="edgeStyle=orthogonalEdgeStyle;rounded=0;orthogonalLoop=1;jettySize=auto;html=1;endArrow=none;endFill=0;" parent="1" edge="1">
          <mxGeometry relative="1" as="geometry">
            <mxPoint x="153" y="260" as="targetPoint" />
            <mxPoint x="151" y="300" as="sourcePoint" />
            <Array as="points">
              <mxPoint x="151" y="260" />
            </Array>
          </mxGeometry>
        </mxCell>
        <mxCell id="pSPw-QTGQI8KGN8gAAyq-108" style="edgeStyle=orthogonalEdgeStyle;rounded=0;orthogonalLoop=1;jettySize=auto;html=1;entryX=0.5;entryY=0;entryDx=0;entryDy=0;endArrow=none;endFill=0;" parent="1" source="pSPw-QTGQI8KGN8gAAyq-97" target="pSPw-QTGQI8KGN8gAAyq-100" edge="1">
          <mxGeometry relative="1" as="geometry" />
        </mxCell>
        <mxCell id="pSPw-QTGQI8KGN8gAAyq-97" value="transform" style="rounded=1;whiteSpace=wrap;html=1;" parent="1" vertex="1">
          <mxGeometry x="423" y="300" width="86" height="30" as="geometry" />
        </mxCell>
        <mxCell id="pSPw-QTGQI8KGN8gAAyq-98" style="edgeStyle=orthogonalEdgeStyle;rounded=0;orthogonalLoop=1;jettySize=auto;html=1;exitX=0.5;exitY=1;exitDx=0;exitDy=0;entryX=0.5;entryY=0;entryDx=0;entryDy=0;endArrow=none;endFill=0;" parent="1" source="pSPw-QTGQI8KGN8gAAyq-100" target="pSPw-QTGQI8KGN8gAAyq-102" edge="1">
          <mxGeometry relative="1" as="geometry">
            <Array as="points">
              <mxPoint x="464" y="400" />
              <mxPoint x="464" y="420" />
            </Array>
          </mxGeometry>
        </mxCell>
        <mxCell id="pSPw-QTGQI8KGN8gAAyq-99" style="edgeStyle=orthogonalEdgeStyle;rounded=0;orthogonalLoop=1;jettySize=auto;html=1;entryX=0.5;entryY=0;entryDx=0;entryDy=0;endArrow=none;endFill=0;" parent="1" source="pSPw-QTGQI8KGN8gAAyq-100" target="pSPw-QTGQI8KGN8gAAyq-104" edge="1">
          <mxGeometry relative="1" as="geometry">
            <Array as="points">
              <mxPoint x="522" y="390" />
            </Array>
          </mxGeometry>
        </mxCell>
        <mxCell id="pSPw-QTGQI8KGN8gAAyq-100" value="shape" style="rounded=1;whiteSpace=wrap;html=1;" parent="1" vertex="1">
          <mxGeometry x="434" y="370" width="64" height="30" as="geometry" />
        </mxCell>
        <mxCell id="pSPw-QTGQI8KGN8gAAyq-101" value="" style="edgeStyle=orthogonalEdgeStyle;rounded=0;orthogonalLoop=1;jettySize=auto;html=1;endArrow=none;endFill=0;" parent="1" source="pSPw-QTGQI8KGN8gAAyq-102" target="pSPw-QTGQI8KGN8gAAyq-103" edge="1">
          <mxGeometry relative="1" as="geometry" />
        </mxCell>
        <mxCell id="pSPw-QTGQI8KGN8gAAyq-102" value="appearance" style="rounded=1;whiteSpace=wrap;html=1;" parent="1" vertex="1">
          <mxGeometry x="415" y="430" width="64" height="30" as="geometry" />
        </mxCell>
        <mxCell id="pSPw-QTGQI8KGN8gAAyq-103" value="material" style="rounded=1;whiteSpace=wrap;html=1;" parent="1" vertex="1">
          <mxGeometry x="415" y="480" width="64" height="30" as="geometry" />
        </mxCell>
        <mxCell id="pSPw-QTGQI8KGN8gAAyq-104" value="IndexedFaceSet" style="rounded=1;whiteSpace=wrap;html=1;" parent="1" vertex="1">
          <mxGeometry x="490" y="430" width="99" height="30" as="geometry" />
        </mxCell>
        <mxCell id="pSPw-QTGQI8KGN8gAAyq-109" style="edgeStyle=orthogonalEdgeStyle;rounded=0;orthogonalLoop=1;jettySize=auto;html=1;entryX=0.5;entryY=0;entryDx=0;entryDy=0;endArrow=none;endFill=0;" parent="1" source="pSPw-QTGQI8KGN8gAAyq-105" target="pSPw-QTGQI8KGN8gAAyq-86" edge="1">
          <mxGeometry relative="1" as="geometry" />
        </mxCell>
        <mxCell id="pSPw-QTGQI8KGN8gAAyq-105" value="transform" style="rounded=1;whiteSpace=wrap;html=1;" parent="1" vertex="1">
          <mxGeometry x="606" y="300" width="86" height="30" as="geometry" />
        </mxCell>
        <mxCell id="pSPw-QTGQI8KGN8gAAyq-106" style="edgeStyle=orthogonalEdgeStyle;rounded=0;orthogonalLoop=1;jettySize=auto;html=1;endArrow=none;endFill=0;" parent="1" edge="1">
          <mxGeometry relative="1" as="geometry">
            <mxPoint x="467" y="260" as="targetPoint" />
            <mxPoint x="465" y="300" as="sourcePoint" />
            <Array as="points">
              <mxPoint x="465" y="260" />
            </Array>
          </mxGeometry>
        </mxCell>
        <mxCell id="pSPw-QTGQI8KGN8gAAyq-107" style="edgeStyle=orthogonalEdgeStyle;rounded=0;orthogonalLoop=1;jettySize=auto;html=1;endArrow=none;endFill=0;" parent="1" edge="1">
          <mxGeometry relative="1" as="geometry">
            <mxPoint x="653" y="260" as="targetPoint" />
            <mxPoint x="651" y="300" as="sourcePoint" />
            <Array as="points">
              <mxPoint x="651" y="260" />
            </Array>
          </mxGeometry>
        </mxCell>
        <mxCell id="pSPw-QTGQI8KGN8gAAyq-112" style="edgeStyle=orthogonalEdgeStyle;rounded=0;orthogonalLoop=1;jettySize=auto;html=1;entryX=0.5;entryY=0;entryDx=0;entryDy=0;endArrow=none;endFill=0;exitX=0.5;exitY=1;exitDx=0;exitDy=0;" parent="1" edge="1" source="pSPw-QTGQI8KGN8gAAyq-31">
          <mxGeometry relative="1" as="geometry">
            <mxPoint x="291.5" y="580" as="targetPoint" />
            <mxPoint x="787.5" y="530" as="sourcePoint" />
            <Array as="points">
              <mxPoint x="784" y="540" />
              <mxPoint x="292" y="540" />
            </Array>
          </mxGeometry>
        </mxCell>
        <mxCell id="pSPw-QTGQI8KGN8gAAyq-113" value="transform" style="rounded=1;whiteSpace=wrap;html=1;" parent="1" vertex="1">
          <mxGeometry x="170" y="640" width="86" height="30" as="geometry" />
        </mxCell>
        <mxCell id="pSPw-QTGQI8KGN8gAAyq-114" style="edgeStyle=orthogonalEdgeStyle;rounded=0;orthogonalLoop=1;jettySize=auto;html=1;endArrow=none;endFill=0;" parent="1" source="pSPw-QTGQI8KGN8gAAyq-115" target="pSPw-QTGQI8KGN8gAAyq-126" edge="1">
          <mxGeometry relative="1" as="geometry" />
        </mxCell>
        <mxCell id="pSPw-QTGQI8KGN8gAAyq-115" value="transform" style="rounded=1;whiteSpace=wrap;html=1;" parent="1" vertex="1">
          <mxGeometry x="323" y="640" width="86" height="30" as="geometry" />
        </mxCell>
        <mxCell id="pSPw-QTGQI8KGN8gAAyq-116" style="edgeStyle=orthogonalEdgeStyle;rounded=0;orthogonalLoop=1;jettySize=auto;html=1;endArrow=none;endFill=0;" parent="1" source="pSPw-QTGQI8KGN8gAAyq-119" target="pSPw-QTGQI8KGN8gAAyq-113" edge="1">
          <mxGeometry relative="1" as="geometry" />
        </mxCell>
        <mxCell id="pSPw-QTGQI8KGN8gAAyq-117" style="edgeStyle=orthogonalEdgeStyle;rounded=0;orthogonalLoop=1;jettySize=auto;html=1;exitX=0.5;exitY=1;exitDx=0;exitDy=0;entryX=0.5;entryY=0;entryDx=0;entryDy=0;endArrow=none;endFill=0;" parent="1" source="pSPw-QTGQI8KGN8gAAyq-119" target="pSPw-QTGQI8KGN8gAAyq-121" edge="1">
          <mxGeometry relative="1" as="geometry">
            <Array as="points">
              <mxPoint x="211" y="740" />
              <mxPoint x="211" y="760" />
            </Array>
          </mxGeometry>
        </mxCell>
        <mxCell id="pSPw-QTGQI8KGN8gAAyq-118" style="edgeStyle=orthogonalEdgeStyle;rounded=0;orthogonalLoop=1;jettySize=auto;html=1;entryX=0.5;entryY=0;entryDx=0;entryDy=0;endArrow=none;endFill=0;" parent="1" source="pSPw-QTGQI8KGN8gAAyq-119" target="pSPw-QTGQI8KGN8gAAyq-123" edge="1">
          <mxGeometry relative="1" as="geometry">
            <Array as="points">
              <mxPoint x="269" y="730" />
            </Array>
          </mxGeometry>
        </mxCell>
        <mxCell id="pSPw-QTGQI8KGN8gAAyq-119" value="shape" style="rounded=1;whiteSpace=wrap;html=1;" parent="1" vertex="1">
          <mxGeometry x="181" y="710" width="64" height="30" as="geometry" />
        </mxCell>
        <mxCell id="pSPw-QTGQI8KGN8gAAyq-120" value="" style="edgeStyle=orthogonalEdgeStyle;rounded=0;orthogonalLoop=1;jettySize=auto;html=1;endArrow=none;endFill=0;" parent="1" source="pSPw-QTGQI8KGN8gAAyq-121" target="pSPw-QTGQI8KGN8gAAyq-122" edge="1">
          <mxGeometry relative="1" as="geometry" />
        </mxCell>
        <mxCell id="pSPw-QTGQI8KGN8gAAyq-121" value="appearance" style="rounded=1;whiteSpace=wrap;html=1;" parent="1" vertex="1">
          <mxGeometry x="162" y="770" width="64" height="30" as="geometry" />
        </mxCell>
        <mxCell id="pSPw-QTGQI8KGN8gAAyq-122" value="material" style="rounded=1;whiteSpace=wrap;html=1;" parent="1" vertex="1">
          <mxGeometry x="162" y="820" width="64" height="30" as="geometry" />
        </mxCell>
        <mxCell id="pSPw-QTGQI8KGN8gAAyq-123" value="torus" style="rounded=1;whiteSpace=wrap;html=1;" parent="1" vertex="1">
          <mxGeometry x="237" y="770" width="64" height="30" as="geometry" />
        </mxCell>
        <mxCell id="pSPw-QTGQI8KGN8gAAyq-124" style="edgeStyle=orthogonalEdgeStyle;rounded=0;orthogonalLoop=1;jettySize=auto;html=1;exitX=0.5;exitY=1;exitDx=0;exitDy=0;entryX=0.5;entryY=0;entryDx=0;entryDy=0;endArrow=none;endFill=0;" parent="1" source="pSPw-QTGQI8KGN8gAAyq-126" target="pSPw-QTGQI8KGN8gAAyq-128" edge="1">
          <mxGeometry relative="1" as="geometry">
            <Array as="points">
              <mxPoint x="364" y="740" />
              <mxPoint x="364" y="760" />
            </Array>
          </mxGeometry>
        </mxCell>
        <mxCell id="pSPw-QTGQI8KGN8gAAyq-125" style="edgeStyle=orthogonalEdgeStyle;rounded=0;orthogonalLoop=1;jettySize=auto;html=1;entryX=0.5;entryY=0;entryDx=0;entryDy=0;endArrow=none;endFill=0;" parent="1" source="pSPw-QTGQI8KGN8gAAyq-126" target="pSPw-QTGQI8KGN8gAAyq-130" edge="1">
          <mxGeometry relative="1" as="geometry">
            <Array as="points">
              <mxPoint x="422" y="730" />
            </Array>
          </mxGeometry>
        </mxCell>
        <mxCell id="pSPw-QTGQI8KGN8gAAyq-126" value="shape" style="rounded=1;whiteSpace=wrap;html=1;" parent="1" vertex="1">
          <mxGeometry x="334" y="710" width="64" height="30" as="geometry" />
        </mxCell>
        <mxCell id="pSPw-QTGQI8KGN8gAAyq-127" value="" style="edgeStyle=orthogonalEdgeStyle;rounded=0;orthogonalLoop=1;jettySize=auto;html=1;endArrow=none;endFill=0;" parent="1" source="pSPw-QTGQI8KGN8gAAyq-128" target="pSPw-QTGQI8KGN8gAAyq-129" edge="1">
          <mxGeometry relative="1" as="geometry" />
        </mxCell>
        <mxCell id="pSPw-QTGQI8KGN8gAAyq-128" value="appearance" style="rounded=1;whiteSpace=wrap;html=1;" parent="1" vertex="1">
          <mxGeometry x="315" y="770" width="64" height="30" as="geometry" />
        </mxCell>
        <mxCell id="pSPw-QTGQI8KGN8gAAyq-129" value="material" style="rounded=1;whiteSpace=wrap;html=1;" parent="1" vertex="1">
          <mxGeometry x="315" y="820" width="64" height="30" as="geometry" />
        </mxCell>
        <mxCell id="pSPw-QTGQI8KGN8gAAyq-130" value="text" style="rounded=1;whiteSpace=wrap;html=1;" parent="1" vertex="1">
          <mxGeometry x="390" y="770" width="64" height="30" as="geometry" />
        </mxCell>
        <mxCell id="pSPw-QTGQI8KGN8gAAyq-142" style="edgeStyle=orthogonalEdgeStyle;rounded=0;orthogonalLoop=1;jettySize=auto;html=1;entryX=0.5;entryY=0;entryDx=0;entryDy=0;endArrow=none;endFill=0;" parent="1" source="pSPw-QTGQI8KGN8gAAyq-131" target="pSPw-QTGQI8KGN8gAAyq-115" edge="1">
          <mxGeometry relative="1" as="geometry">
            <Array as="points">
              <mxPoint x="366" y="595" />
            </Array>
          </mxGeometry>
        </mxCell>
        <mxCell id="pSPw-QTGQI8KGN8gAAyq-143" style="edgeStyle=orthogonalEdgeStyle;rounded=0;orthogonalLoop=1;jettySize=auto;html=1;entryX=0.5;entryY=0;entryDx=0;entryDy=0;endArrow=none;endFill=0;" parent="1" source="pSPw-QTGQI8KGN8gAAyq-131" target="pSPw-QTGQI8KGN8gAAyq-113" edge="1">
          <mxGeometry relative="1" as="geometry">
            <Array as="points">
              <mxPoint x="213" y="595" />
            </Array>
          </mxGeometry>
        </mxCell>
        <mxCell id="pSPw-QTGQI8KGN8gAAyq-131" value="group" style="rounded=1;whiteSpace=wrap;html=1;" parent="1" vertex="1">
          <mxGeometry x="251" y="580" width="86" height="30" as="geometry" />
        </mxCell>
        <mxCell id="pSPw-QTGQI8KGN8gAAyq-133" style="edgeStyle=orthogonalEdgeStyle;rounded=0;orthogonalLoop=1;jettySize=auto;html=1;entryX=0.5;entryY=0;entryDx=0;entryDy=0;endArrow=none;endFill=0;" parent="1" source="pSPw-QTGQI8KGN8gAAyq-134" target="pSPw-QTGQI8KGN8gAAyq-137" edge="1">
          <mxGeometry relative="1" as="geometry" />
        </mxCell>
        <mxCell id="pSPw-QTGQI8KGN8gAAyq-144" style="edgeStyle=orthogonalEdgeStyle;rounded=0;orthogonalLoop=1;jettySize=auto;html=1;endArrow=none;endFill=0;" parent="1" source="pSPw-QTGQI8KGN8gAAyq-134" edge="1">
          <mxGeometry relative="1" as="geometry">
            <mxPoint x="572" y="540" as="targetPoint" />
          </mxGeometry>
        </mxCell>
        <mxCell id="pSPw-QTGQI8KGN8gAAyq-134" value="transform" style="rounded=1;whiteSpace=wrap;html=1;" parent="1" vertex="1">
          <mxGeometry x="529" y="590" width="86" height="30" as="geometry" />
        </mxCell>
        <mxCell id="pSPw-QTGQI8KGN8gAAyq-135" style="edgeStyle=orthogonalEdgeStyle;rounded=0;orthogonalLoop=1;jettySize=auto;html=1;exitX=0.5;exitY=1;exitDx=0;exitDy=0;entryX=0.5;entryY=0;entryDx=0;entryDy=0;endArrow=none;endFill=0;" parent="1" source="pSPw-QTGQI8KGN8gAAyq-137" target="pSPw-QTGQI8KGN8gAAyq-139" edge="1">
          <mxGeometry relative="1" as="geometry">
            <Array as="points">
              <mxPoint x="570" y="690" />
              <mxPoint x="570" y="710" />
            </Array>
          </mxGeometry>
        </mxCell>
        <mxCell id="pSPw-QTGQI8KGN8gAAyq-136" style="edgeStyle=orthogonalEdgeStyle;rounded=0;orthogonalLoop=1;jettySize=auto;html=1;entryX=0.5;entryY=0;entryDx=0;entryDy=0;endArrow=none;endFill=0;" parent="1" source="pSPw-QTGQI8KGN8gAAyq-137" target="pSPw-QTGQI8KGN8gAAyq-141" edge="1">
          <mxGeometry relative="1" as="geometry">
            <Array as="points">
              <mxPoint x="628" y="680" />
            </Array>
          </mxGeometry>
        </mxCell>
        <mxCell id="pSPw-QTGQI8KGN8gAAyq-137" value="shape" style="rounded=1;whiteSpace=wrap;html=1;" parent="1" vertex="1">
          <mxGeometry x="540" y="660" width="64" height="30" as="geometry" />
        </mxCell>
        <mxCell id="pSPw-QTGQI8KGN8gAAyq-138" value="" style="edgeStyle=orthogonalEdgeStyle;rounded=0;orthogonalLoop=1;jettySize=auto;html=1;endArrow=none;endFill=0;" parent="1" source="pSPw-QTGQI8KGN8gAAyq-139" target="pSPw-QTGQI8KGN8gAAyq-140" edge="1">
          <mxGeometry relative="1" as="geometry" />
        </mxCell>
        <mxCell id="pSPw-QTGQI8KGN8gAAyq-139" value="appearance" style="rounded=1;whiteSpace=wrap;html=1;" parent="1" vertex="1">
          <mxGeometry x="490" y="720" width="64" height="30" as="geometry" />
        </mxCell>
        <mxCell id="pSPw-QTGQI8KGN8gAAyq-140" value="material" style="rounded=1;whiteSpace=wrap;html=1;" parent="1" vertex="1">
          <mxGeometry x="490" y="770" width="64" height="30" as="geometry" />
        </mxCell>
        <mxCell id="pSPw-QTGQI8KGN8gAAyq-141" value="dish" style="rounded=1;whiteSpace=wrap;html=1;" parent="1" vertex="1">
          <mxGeometry x="596" y="720" width="99" height="30" as="geometry" />
        </mxCell>
        <mxCell id="L6Qv9vJODIxAby1nLslO-3" style="edgeStyle=orthogonalEdgeStyle;rounded=0;orthogonalLoop=1;jettySize=auto;html=1;entryX=0.5;entryY=0;entryDx=0;entryDy=0;endArrow=none;endFill=0;" edge="1" parent="1">
          <mxGeometry relative="1" as="geometry">
            <Array as="points">
              <mxPoint x="184" y="49" />
              <mxPoint x="184" y="52" />
              <mxPoint x="91" y="52" />
              <mxPoint x="91" y="69" />
            </Array>
            <mxPoint x="184" y="48" as="sourcePoint" />
            <mxPoint x="100" y="69" as="targetPoint" />
          </mxGeometry>
        </mxCell>
        <mxCell id="L6Qv9vJODIxAby1nLslO-11" style="edgeStyle=orthogonalEdgeStyle;shape=connector;rounded=0;orthogonalLoop=1;jettySize=auto;html=1;labelBackgroundColor=default;strokeColor=default;align=center;verticalAlign=middle;fontFamily=Helvetica;fontSize=11;fontColor=default;endArrow=none;endFill=0;" edge="1" parent="1" source="L6Qv9vJODIxAby1nLslO-10">
          <mxGeometry relative="1" as="geometry">
            <mxPoint x="405" y="-28.793113971578634" as="targetPoint" />
          </mxGeometry>
        </mxCell>
        <mxCell id="L6Qv9vJODIxAby1nLslO-10" value="script" style="rounded=1;whiteSpace=wrap;html=1;" vertex="1" parent="1">
          <mxGeometry x="381" y="2" width="48" height="30" as="geometry" />
        </mxCell>
        <mxCell id="L6Qv9vJODIxAby1nLslO-36" value="Color Interpolator" style="rounded=1;whiteSpace=wrap;html=1;fontFamily=Helvetica;fontSize=11;fontColor=default;" vertex="1" parent="1">
          <mxGeometry x="50" y="890" width="73" height="60" as="geometry" />
        </mxCell>
        <mxCell id="L6Qv9vJODIxAby1nLslO-45" style="edgeStyle=orthogonalEdgeStyle;shape=connector;rounded=0;orthogonalLoop=1;jettySize=auto;html=1;labelBackgroundColor=default;strokeColor=default;align=center;verticalAlign=middle;fontFamily=Helvetica;fontSize=11;fontColor=default;endArrow=none;endFill=0;entryX=0.5;entryY=1;entryDx=0;entryDy=0;" edge="1" parent="1" source="L6Qv9vJODIxAby1nLslO-40" target="pSPw-QTGQI8KGN8gAAyq-31">
          <mxGeometry relative="1" as="geometry">
            <mxPoint x="280" y="140" as="targetPoint" />
            <Array as="points">
              <mxPoint x="140" y="170" />
              <mxPoint x="784" y="170" />
            </Array>
          </mxGeometry>
        </mxCell>
        <mxCell id="L6Qv9vJODIxAby1nLslO-40" value="Pointlight" style="rounded=1;whiteSpace=wrap;html=1;" vertex="1" parent="1">
          <mxGeometry x="96" y="190" width="86" height="40" as="geometry" />
        </mxCell>
        <mxCell id="L6Qv9vJODIxAby1nLslO-47" value="" style="edgeStyle=orthogonalEdgeStyle;shape=connector;rounded=0;orthogonalLoop=1;jettySize=auto;html=1;labelBackgroundColor=default;strokeColor=default;align=center;verticalAlign=middle;fontFamily=Helvetica;fontSize=11;fontColor=default;endArrow=none;endFill=0;entryX=0.5;entryY=1;entryDx=0;entryDy=0;" edge="1" parent="1" source="L6Qv9vJODIxAby1nLslO-41" target="pSPw-QTGQI8KGN8gAAyq-31">
          <mxGeometry relative="1" as="geometry">
            <Array as="points">
              <mxPoint x="243" y="170" />
              <mxPoint x="784" y="170" />
            </Array>
          </mxGeometry>
        </mxCell>
        <mxCell id="L6Qv9vJODIxAby1nLslO-41" value="Spotlight" style="rounded=1;whiteSpace=wrap;html=1;" vertex="1" parent="1">
          <mxGeometry x="200" y="190" width="86" height="40" as="geometry" />
        </mxCell>
        <mxCell id="L6Qv9vJODIxAby1nLslO-50" style="edgeStyle=orthogonalEdgeStyle;shape=connector;rounded=0;orthogonalLoop=1;jettySize=auto;html=1;entryX=0.5;entryY=1;entryDx=0;entryDy=0;labelBackgroundColor=default;strokeColor=default;align=center;verticalAlign=middle;fontFamily=Helvetica;fontSize=11;fontColor=default;endArrow=none;endFill=0;" edge="1" parent="1" source="L6Qv9vJODIxAby1nLslO-48" target="pSPw-QTGQI8KGN8gAAyq-31">
          <mxGeometry relative="1" as="geometry">
            <Array as="points">
              <mxPoint x="184" y="870" />
              <mxPoint x="784" y="870" />
            </Array>
          </mxGeometry>
        </mxCell>
        <mxCell id="L6Qv9vJODIxAby1nLslO-48" value="Coordinate Interpolator" style="rounded=1;whiteSpace=wrap;html=1;fontFamily=Helvetica;fontSize=11;fontColor=default;" vertex="1" parent="1">
          <mxGeometry x="147.5" y="890" width="73" height="60" as="geometry" />
        </mxCell>
        <mxCell id="L6Qv9vJODIxAby1nLslO-51" style="edgeStyle=orthogonalEdgeStyle;shape=connector;rounded=0;orthogonalLoop=1;jettySize=auto;html=1;entryX=0.5;entryY=1;entryDx=0;entryDy=0;labelBackgroundColor=default;strokeColor=default;align=center;verticalAlign=middle;fontFamily=Helvetica;fontSize=11;fontColor=default;endArrow=none;endFill=0;" edge="1" parent="1" source="L6Qv9vJODIxAby1nLslO-49" target="pSPw-QTGQI8KGN8gAAyq-31">
          <mxGeometry relative="1" as="geometry">
            <Array as="points">
              <mxPoint x="274" y="870" />
              <mxPoint x="784" y="870" />
            </Array>
          </mxGeometry>
        </mxCell>
        <mxCell id="L6Qv9vJODIxAby1nLslO-49" value="Position Interpolator" style="rounded=1;whiteSpace=wrap;html=1;fontFamily=Helvetica;fontSize=11;fontColor=default;" vertex="1" parent="1">
          <mxGeometry x="237" y="890" width="73" height="60" as="geometry" />
        </mxCell>
        <mxCell id="L6Qv9vJODIxAby1nLslO-54" style="edgeStyle=orthogonalEdgeStyle;shape=connector;rounded=0;orthogonalLoop=1;jettySize=auto;html=1;entryX=0.5;entryY=1;entryDx=0;entryDy=0;labelBackgroundColor=default;strokeColor=default;align=center;verticalAlign=middle;fontFamily=Helvetica;fontSize=11;fontColor=default;endArrow=none;endFill=0;" edge="1" parent="1" source="L6Qv9vJODIxAby1nLslO-52" target="pSPw-QTGQI8KGN8gAAyq-31">
          <mxGeometry relative="1" as="geometry">
            <Array as="points">
              <mxPoint x="363" y="870" />
              <mxPoint x="784" y="870" />
            </Array>
          </mxGeometry>
        </mxCell>
        <mxCell id="L6Qv9vJODIxAby1nLslO-52" value="Plane Sensor" style="rounded=1;whiteSpace=wrap;html=1;fontFamily=Helvetica;fontSize=11;fontColor=default;" vertex="1" parent="1">
          <mxGeometry x="326" y="890" width="73" height="60" as="geometry" />
        </mxCell>
        <mxCell id="L6Qv9vJODIxAby1nLslO-55" style="edgeStyle=orthogonalEdgeStyle;shape=connector;rounded=0;orthogonalLoop=1;jettySize=auto;html=1;entryX=0.5;entryY=1;entryDx=0;entryDy=0;labelBackgroundColor=default;strokeColor=default;align=center;verticalAlign=middle;fontFamily=Helvetica;fontSize=11;fontColor=default;endArrow=none;endFill=0;" edge="1" parent="1" source="L6Qv9vJODIxAby1nLslO-53" target="pSPw-QTGQI8KGN8gAAyq-31">
          <mxGeometry relative="1" as="geometry">
            <Array as="points">
              <mxPoint x="454" y="870" />
              <mxPoint x="784" y="870" />
            </Array>
          </mxGeometry>
        </mxCell>
        <mxCell id="L6Qv9vJODIxAby1nLslO-53" value="Cylinder Sensor" style="rounded=1;whiteSpace=wrap;html=1;fontFamily=Helvetica;fontSize=11;fontColor=default;" vertex="1" parent="1">
          <mxGeometry x="417" y="890" width="73" height="60" as="geometry" />
        </mxCell>
      </root>
    </mxGraphModel>
  </diagram>
</mxfile>
